<svg width="512" height="512" viewBox="0 0 512 512" fill="none" xmlns="http://www.w3.org/2000/svg">
<g clip-path="url(#clip0_105_4)">
<path d="M338.219 188.885L271.104 256L338.219 323.115C342.379 327.275 342.379 334.037 338.219 338.197C336.128 340.288 333.397 341.312 330.667 341.312C327.936 341.312 325.205 340.267 323.115 338.197L256 271.083L188.885 338.197C186.795 340.288 184.064 341.312 181.333 341.312C178.603 341.312 175.872 340.267 173.781 338.197C169.621 334.037 169.621 327.275 173.781 323.115L240.896 256L173.781 188.885C169.621 184.725 169.621 177.963 173.781 173.803C177.941 169.643 184.704 169.643 188.864 173.803L255.979 240.917L323.093 173.803C327.253 169.643 334.016 169.643 338.176 173.803C342.336 177.963 342.336 184.725 338.176 188.885H338.219ZM512 256C512 397.163 397.163 512 256 512C114.837 512 0 397.163 0 256C0 114.837 114.837 0 256 0C397.163 0 512 114.837 512 256ZM490.667 256C490.667 126.613 385.387 21.3333 256 21.3333C126.613 21.3333 21.3333 126.613 21.3333 256C21.3333 385.387 126.613 490.667 256 490.667C385.387 490.667 490.667 385.387 490.667 256Z" fill="white"/>
</g>
<defs>
<clipPath id="clip0_105_4">
<rect width="512" height="512" fill="white"/>
</clipPath>
</defs>
</svg>
