<svg width="683" height="683" viewBox="0 0 683 683" fill="none" xmlns="http://www.w3.org/2000/svg">
<path d="M428.933 130.133C393.6 136.533 362.533 162.267 348.8 196.4C346.933 201.2 344.933 207.067 344.533 209.333L343.733 213.333H202.133C67.0666 213.333 60.3999 213.467 55.1999 215.867C47.0666 219.6 43.3333 225.6 43.3333 234.933C43.3333 243.333 45.8666 247.867 53.3333 252.933L57.7333 256H200.533H343.333L346.933 267.733C355.333 294.533 375.733 318 401.733 330.667C418.667 338.8 427.2 340.667 448 340.667C468.8 340.533 477.2 338.8 494.267 330.533C520.267 318.133 540.133 295.333 548.933 268L552.667 256H588.8C624 256 625.067 255.867 629.333 252.933C636 248.533 638.933 243.6 639.6 236.4C640.267 227.733 636.133 220.4 628 216.267C622.267 213.467 620.8 213.333 587.2 213.333H552.4L551.467 209.333C550 201.733 543.6 187.333 537.733 178.133C521.333 152.533 495.333 135.2 466 130C452 127.6 442.8 127.6 428.933 130.133ZM461.467 172.533C487.467 178.133 507.2 199.333 511.067 225.867C517.6 271.2 475.867 308.267 431.333 296.667C407.733 290.4 389.333 270.267 385.067 245.6C379.467 212.667 401.333 179.733 433.733 172.667C444.533 170.267 450.8 170.267 461.467 172.533Z" fill="#0787A8"/>
<path d="M215.6 343.467C180.267 349.867 149.2 375.6 135.467 409.733C133.6 414.533 131.6 420.4 131.2 422.667L130.4 426.667H95.4666C64.3999 426.667 60.1333 426.933 55.1999 429.2C47.0666 432.933 43.3333 438.933 43.3333 448.267C43.3333 456.667 45.8666 461.2 53.3333 466.267C57.5999 469.2 58.6666 469.333 93.8666 469.333H130L133.6 481.067C142 507.867 162.4 531.333 188.4 544C205.333 552.133 213.867 554 234.667 554C255.467 553.867 263.867 552.133 280.933 543.867C306.933 531.467 326.8 508.667 335.6 481.333L339.333 469.333H482.133H624.933L629.333 466.267C636 461.867 638.933 456.933 639.6 449.733C640.267 441.067 636.133 433.733 628 429.6L622.133 426.667H480.533H339.067L338.133 422.667C336.667 415.067 330.267 400.667 324.4 391.467C308 365.867 282 348.533 252.667 343.333C238.667 340.933 229.467 340.933 215.6 343.467ZM248.133 385.867C274.133 391.467 293.867 412.667 297.733 439.2C304.267 484.533 262.533 521.6 218 510C194.4 503.733 176 483.6 171.733 458.933C166.133 426 188 393.067 220.4 386C231.2 383.6 237.467 383.6 248.133 385.867Z" fill="#0787A8"/>
</svg>
